<mxfile host="app.diagrams.net" modified="2020-05-28T16:33:26.896Z" agent="5.0 (X11; Linux x86_64) AppleWebKit/537.36 (KHTML, like Gecko) Chrome/81.0.4044.113 Safari/537.36" etag="5zyFES47UqwUI-QI5mWf" version="13.1.2" type="github">
  <diagram id="vIyfRkFqyBSCbGP6b9RL" name="Page-1">
    <mxGraphModel dx="347" dy="182" grid="1" gridSize="10" guides="1" tooltips="1" connect="1" arrows="1" fold="1" page="1" pageScale="1" pageWidth="827" pageHeight="1169" math="0" shadow="0">
      <root>
        <mxCell id="0" />
        <mxCell id="1" parent="0" />
        <mxCell id="5Xf0QpiWQxK2mgK0G_hX-1" value="" style="endArrow=none;dashed=1;html=1;jumpSize=11;fillColor=#b0e3e6;strokeColor=#0e8088;" parent="1" edge="1">
          <mxGeometry width="50" height="50" relative="1" as="geometry">
            <mxPoint x="390" y="260" as="sourcePoint" />
            <mxPoint x="390" y="160" as="targetPoint" />
          </mxGeometry>
        </mxCell>
        <mxCell id="5Xf0QpiWQxK2mgK0G_hX-2" value="" style="endArrow=none;dashed=1;html=1;jumpSize=11;fillColor=#b0e3e6;strokeColor=#0e8088;" parent="1" edge="1">
          <mxGeometry width="50" height="50" relative="1" as="geometry">
            <mxPoint x="390" y="260" as="sourcePoint" />
            <mxPoint x="510" y="260" as="targetPoint" />
          </mxGeometry>
        </mxCell>
        <mxCell id="5Xf0QpiWQxK2mgK0G_hX-3" value="" style="endArrow=none;dashed=1;html=1;jumpSize=11;fillColor=#b0e3e6;strokeColor=#0e8088;" parent="1" edge="1">
          <mxGeometry width="50" height="50" relative="1" as="geometry">
            <mxPoint x="390" y="260" as="sourcePoint" />
            <mxPoint x="450" y="220" as="targetPoint" />
          </mxGeometry>
        </mxCell>
        <mxCell id="5Xf0QpiWQxK2mgK0G_hX-5" value="" style="endArrow=none;dashed=1;html=1;jumpSize=11;jumpStyle=arc;fillColor=#b0e3e6;strokeColor=#0e8088;" parent="1" edge="1">
          <mxGeometry width="50" height="50" relative="1" as="geometry">
            <mxPoint x="510" y="160" as="sourcePoint" />
            <mxPoint x="510" y="260" as="targetPoint" />
          </mxGeometry>
        </mxCell>
        <mxCell id="5Xf0QpiWQxK2mgK0G_hX-6" value="" style="endArrow=none;dashed=1;html=1;jumpSize=11;fillColor=#b0e3e6;strokeColor=#0e8088;" parent="1" edge="1">
          <mxGeometry width="50" height="50" relative="1" as="geometry">
            <mxPoint x="510" y="160" as="sourcePoint" />
            <mxPoint x="390" y="160" as="targetPoint" />
          </mxGeometry>
        </mxCell>
        <mxCell id="5Xf0QpiWQxK2mgK0G_hX-7" value="" style="endArrow=none;dashed=1;html=1;jumpSize=11;fillColor=#b0e3e6;strokeColor=#0e8088;" parent="1" edge="1">
          <mxGeometry width="50" height="50" relative="1" as="geometry">
            <mxPoint x="390" y="160" as="sourcePoint" />
            <mxPoint x="450" y="140" as="targetPoint" />
          </mxGeometry>
        </mxCell>
        <mxCell id="5Xf0QpiWQxK2mgK0G_hX-8" value="" style="endArrow=none;dashed=1;html=1;jumpSize=11;fillColor=#b0e3e6;strokeColor=#0e8088;" parent="1" edge="1">
          <mxGeometry width="50" height="50" relative="1" as="geometry">
            <mxPoint x="450" y="220" as="sourcePoint" />
            <mxPoint x="450" y="140" as="targetPoint" />
          </mxGeometry>
        </mxCell>
        <mxCell id="5Xf0QpiWQxK2mgK0G_hX-9" value="" style="endArrow=none;dashed=1;html=1;jumpSize=11;fillColor=#b0e3e6;strokeColor=#0e8088;" parent="1" edge="1">
          <mxGeometry width="50" height="50" relative="1" as="geometry">
            <mxPoint x="540" y="140" as="sourcePoint" />
            <mxPoint x="450" y="140" as="targetPoint" />
          </mxGeometry>
        </mxCell>
        <mxCell id="5Xf0QpiWQxK2mgK0G_hX-10" value="" style="endArrow=none;dashed=1;html=1;jumpSize=11;fillColor=#b0e3e6;strokeColor=#0e8088;" parent="1" edge="1">
          <mxGeometry width="50" height="50" relative="1" as="geometry">
            <mxPoint x="510" y="160" as="sourcePoint" />
            <mxPoint x="540" y="140" as="targetPoint" />
          </mxGeometry>
        </mxCell>
        <mxCell id="5Xf0QpiWQxK2mgK0G_hX-11" value="" style="endArrow=none;dashed=1;html=1;jumpSize=11;fillColor=#b0e3e6;strokeColor=#0e8088;" parent="1" edge="1">
          <mxGeometry width="50" height="50" relative="1" as="geometry">
            <mxPoint x="540" y="220" as="sourcePoint" />
            <mxPoint x="450" y="220" as="targetPoint" />
          </mxGeometry>
        </mxCell>
        <mxCell id="5Xf0QpiWQxK2mgK0G_hX-12" value="" style="endArrow=none;dashed=1;html=1;jumpSize=11;fillColor=#b0e3e6;strokeColor=#0e8088;" parent="1" edge="1">
          <mxGeometry width="50" height="50" relative="1" as="geometry">
            <mxPoint x="540" y="220" as="sourcePoint" />
            <mxPoint x="540" y="140" as="targetPoint" />
          </mxGeometry>
        </mxCell>
        <mxCell id="5Xf0QpiWQxK2mgK0G_hX-13" value="" style="endArrow=none;dashed=1;html=1;jumpSize=11;fillColor=#b0e3e6;strokeColor=#0e8088;" parent="1" edge="1">
          <mxGeometry width="50" height="50" relative="1" as="geometry">
            <mxPoint x="510" y="260" as="sourcePoint" />
            <mxPoint x="540" y="220" as="targetPoint" />
          </mxGeometry>
        </mxCell>
        <mxCell id="5Xf0QpiWQxK2mgK0G_hX-16" value="&lt;p style=&quot;text-align: justify ; font-size: 7px&quot;&gt;A&lt;/p&gt;" style="ellipse;whiteSpace=wrap;html=1;aspect=fixed;fillColor=#b0e3e6;strokeColor=none;opacity=40;align=center;horizontal=1;" parent="1" vertex="1">
          <mxGeometry x="380" y="110" width="10" height="10" as="geometry" />
        </mxCell>
        <mxCell id="5Xf0QpiWQxK2mgK0G_hX-17" value="&lt;font style=&quot;font-size: 7px;&quot;&gt;F&lt;/font&gt;" style="ellipse;whiteSpace=wrap;html=1;aspect=fixed;fillColor=#FF33FF;strokeColor=none;opacity=40;horizontal=1;verticalAlign=middle;fontSize=7;" parent="1" vertex="1">
          <mxGeometry x="380" y="120" width="10" height="10" as="geometry" />
        </mxCell>
        <mxCell id="5Xf0QpiWQxK2mgK0G_hX-18" value="&lt;font style=&quot;font-size: 7px;&quot;&gt;E&lt;/font&gt;" style="ellipse;whiteSpace=wrap;html=1;aspect=fixed;fillColor=#FF3333;strokeColor=none;opacity=40;verticalAlign=middle;horizontal=1;fontSize=7;" parent="1" vertex="1">
          <mxGeometry x="380" y="130" width="10" height="10" as="geometry" />
        </mxCell>
        <mxCell id="5Xf0QpiWQxK2mgK0G_hX-19" value="B" style="ellipse;whiteSpace=wrap;html=1;aspect=fixed;fillColor=#00CC00;strokeColor=none;opacity=40;fontSize=7;" parent="1" vertex="1">
          <mxGeometry x="380" y="140" width="10" height="10" as="geometry" />
        </mxCell>
        <mxCell id="5Xf0QpiWQxK2mgK0G_hX-20" value="Americano" style="text;html=1;strokeColor=none;fillColor=none;align=left;verticalAlign=middle;whiteSpace=wrap;rounded=0;opacity=40;fontSize=6;" parent="1" vertex="1">
          <mxGeometry x="390" y="110" width="37" height="10" as="geometry" />
        </mxCell>
        <mxCell id="5Xf0QpiWQxK2mgK0G_hX-21" value="Frances" style="text;html=1;strokeColor=none;fillColor=none;align=left;verticalAlign=middle;whiteSpace=wrap;rounded=0;opacity=40;fontSize=6;" parent="1" vertex="1">
          <mxGeometry x="390" y="120" width="28" height="10" as="geometry" />
        </mxCell>
        <mxCell id="5Xf0QpiWQxK2mgK0G_hX-22" value="Espanhol" style="text;html=1;strokeColor=none;fillColor=none;align=left;verticalAlign=middle;whiteSpace=wrap;rounded=0;opacity=40;fontSize=6;" parent="1" vertex="1">
          <mxGeometry x="390" y="130" width="31" height="10" as="geometry" />
        </mxCell>
        <mxCell id="5Xf0QpiWQxK2mgK0G_hX-23" value="Brasileiro" style="text;html=1;strokeColor=none;fillColor=none;align=left;verticalAlign=middle;whiteSpace=wrap;rounded=0;opacity=40;fontSize=6;" parent="1" vertex="1">
          <mxGeometry x="390" y="140" width="40" height="10" as="geometry" />
        </mxCell>
        <mxCell id="u7fbEdpQ0vw_3mq9TT0k-1" value="&lt;p style=&quot;text-align: justify ; font-size: 7px&quot;&gt;A&lt;/p&gt;" style="ellipse;whiteSpace=wrap;html=1;aspect=fixed;fillColor=#b0e3e6;strokeColor=none;opacity=40;align=center;horizontal=1;" vertex="1" parent="1">
          <mxGeometry x="404" y="210" width="10" height="10" as="geometry" />
        </mxCell>
        <mxCell id="u7fbEdpQ0vw_3mq9TT0k-2" value="&lt;p style=&quot;text-align: justify ; font-size: 7px&quot;&gt;A&lt;/p&gt;" style="ellipse;whiteSpace=wrap;html=1;aspect=fixed;fillColor=#b0e3e6;strokeColor=none;opacity=40;align=center;horizontal=1;" vertex="1" parent="1">
          <mxGeometry x="404" y="190" width="10" height="10" as="geometry" />
        </mxCell>
        <mxCell id="u7fbEdpQ0vw_3mq9TT0k-3" value="&lt;p style=&quot;text-align: justify ; font-size: 7px&quot;&gt;A&lt;/p&gt;" style="ellipse;whiteSpace=wrap;html=1;aspect=fixed;fillColor=#b0e3e6;strokeColor=none;opacity=40;align=center;horizontal=1;" vertex="1" parent="1">
          <mxGeometry x="421" y="220" width="10" height="10" as="geometry" />
        </mxCell>
        <mxCell id="u7fbEdpQ0vw_3mq9TT0k-4" value="&lt;p style=&quot;text-align: justify ; font-size: 7px&quot;&gt;A&lt;/p&gt;" style="ellipse;whiteSpace=wrap;html=1;aspect=fixed;fillColor=#b0e3e6;strokeColor=none;opacity=40;align=center;horizontal=1;" vertex="1" parent="1">
          <mxGeometry x="420" y="180" width="10" height="10" as="geometry" />
        </mxCell>
        <mxCell id="u7fbEdpQ0vw_3mq9TT0k-5" value="&lt;p style=&quot;text-align: justify ; font-size: 7px&quot;&gt;A&lt;/p&gt;" style="ellipse;whiteSpace=wrap;html=1;aspect=fixed;fillColor=#b0e3e6;strokeColor=none;opacity=40;align=center;horizontal=1;" vertex="1" parent="1">
          <mxGeometry x="430" y="190" width="10" height="10" as="geometry" />
        </mxCell>
        <mxCell id="u7fbEdpQ0vw_3mq9TT0k-6" value="&lt;p style=&quot;text-align: justify ; font-size: 7px&quot;&gt;A&lt;/p&gt;" style="ellipse;whiteSpace=wrap;html=1;aspect=fixed;fillColor=#b0e3e6;strokeColor=none;opacity=40;align=center;horizontal=1;" vertex="1" parent="1">
          <mxGeometry x="450" y="200" width="10" height="10" as="geometry" />
        </mxCell>
        <mxCell id="u7fbEdpQ0vw_3mq9TT0k-7" value="&lt;p style=&quot;text-align: justify ; font-size: 7px&quot;&gt;A&lt;/p&gt;" style="ellipse;whiteSpace=wrap;html=1;aspect=fixed;fillColor=#b0e3e6;strokeColor=none;opacity=40;align=center;horizontal=1;" vertex="1" parent="1">
          <mxGeometry x="450" y="230" width="10" height="10" as="geometry" />
        </mxCell>
        <mxCell id="u7fbEdpQ0vw_3mq9TT0k-8" value="&lt;p style=&quot;text-align: justify ; font-size: 7px&quot;&gt;A&lt;/p&gt;" style="ellipse;whiteSpace=wrap;html=1;aspect=fixed;fillColor=#b0e3e6;strokeColor=none;opacity=40;align=center;horizontal=1;" vertex="1" parent="1">
          <mxGeometry x="431" y="160" width="10" height="10" as="geometry" />
        </mxCell>
        <mxCell id="u7fbEdpQ0vw_3mq9TT0k-9" value="&lt;font style=&quot;font-size: 7px;&quot;&gt;F&lt;/font&gt;" style="ellipse;whiteSpace=wrap;html=1;aspect=fixed;fillColor=#FF33FF;strokeColor=none;opacity=40;horizontal=1;verticalAlign=middle;fontSize=7;" vertex="1" parent="1">
          <mxGeometry x="520" y="160" width="10" height="10" as="geometry" />
        </mxCell>
        <mxCell id="u7fbEdpQ0vw_3mq9TT0k-10" value="&lt;font style=&quot;font-size: 7px;&quot;&gt;F&lt;/font&gt;" style="ellipse;whiteSpace=wrap;html=1;aspect=fixed;fillColor=#FF33FF;strokeColor=none;opacity=40;horizontal=1;verticalAlign=middle;fontSize=7;" vertex="1" parent="1">
          <mxGeometry x="510" y="170" width="10" height="10" as="geometry" />
        </mxCell>
        <mxCell id="u7fbEdpQ0vw_3mq9TT0k-11" value="&lt;font style=&quot;font-size: 7px;&quot;&gt;F&lt;/font&gt;" style="ellipse;whiteSpace=wrap;html=1;aspect=fixed;fillColor=#FF33FF;strokeColor=none;opacity=40;horizontal=1;verticalAlign=middle;fontSize=7;" vertex="1" parent="1">
          <mxGeometry x="520" y="180" width="10" height="10" as="geometry" />
        </mxCell>
        <mxCell id="u7fbEdpQ0vw_3mq9TT0k-12" value="&lt;font style=&quot;font-size: 7px;&quot;&gt;F&lt;/font&gt;" style="ellipse;whiteSpace=wrap;html=1;aspect=fixed;fillColor=#FF33FF;strokeColor=none;opacity=40;horizontal=1;verticalAlign=middle;fontSize=7;" vertex="1" parent="1">
          <mxGeometry x="510" y="150" width="10" height="10" as="geometry" />
        </mxCell>
        <mxCell id="u7fbEdpQ0vw_3mq9TT0k-15" value="&lt;font style=&quot;font-size: 7px;&quot;&gt;F&lt;/font&gt;" style="ellipse;whiteSpace=wrap;html=1;aspect=fixed;fillColor=#FF33FF;strokeColor=none;opacity=40;horizontal=1;verticalAlign=middle;fontSize=7;" vertex="1" parent="1">
          <mxGeometry x="490" y="160" width="10" height="10" as="geometry" />
        </mxCell>
        <mxCell id="u7fbEdpQ0vw_3mq9TT0k-16" value="&lt;font style=&quot;font-size: 7px;&quot;&gt;F&lt;/font&gt;" style="ellipse;whiteSpace=wrap;html=1;aspect=fixed;fillColor=#FF33FF;strokeColor=none;opacity=40;horizontal=1;verticalAlign=middle;fontSize=7;" vertex="1" parent="1">
          <mxGeometry x="480" y="140" width="10" height="10" as="geometry" />
        </mxCell>
        <mxCell id="u7fbEdpQ0vw_3mq9TT0k-17" value="&lt;font style=&quot;font-size: 7px;&quot;&gt;F&lt;/font&gt;" style="ellipse;whiteSpace=wrap;html=1;aspect=fixed;fillColor=#FF33FF;strokeColor=none;opacity=40;horizontal=1;verticalAlign=middle;fontSize=7;" vertex="1" parent="1">
          <mxGeometry x="470" y="150" width="10" height="10" as="geometry" />
        </mxCell>
        <mxCell id="u7fbEdpQ0vw_3mq9TT0k-18" value="&lt;font style=&quot;font-size: 7px;&quot;&gt;F&lt;/font&gt;" style="ellipse;whiteSpace=wrap;html=1;aspect=fixed;fillColor=#FF33FF;strokeColor=none;opacity=40;horizontal=1;verticalAlign=middle;fontSize=7;" vertex="1" parent="1">
          <mxGeometry x="494" y="146" width="10" height="10" as="geometry" />
        </mxCell>
        <mxCell id="u7fbEdpQ0vw_3mq9TT0k-19" value="&lt;font style=&quot;font-size: 7px;&quot;&gt;F&lt;/font&gt;" style="ellipse;whiteSpace=wrap;html=1;aspect=fixed;fillColor=#FF33FF;strokeColor=none;opacity=40;horizontal=1;verticalAlign=middle;fontSize=7;" vertex="1" parent="1">
          <mxGeometry x="480" y="180" width="10" height="10" as="geometry" />
        </mxCell>
        <mxCell id="u7fbEdpQ0vw_3mq9TT0k-20" value="&lt;p style=&quot;text-align: justify ; font-size: 7px&quot;&gt;A&lt;/p&gt;" style="ellipse;whiteSpace=wrap;html=1;aspect=fixed;fillColor=#b0e3e6;strokeColor=none;opacity=40;align=center;horizontal=1;" vertex="1" parent="1">
          <mxGeometry x="417" y="191" width="10" height="10" as="geometry" />
        </mxCell>
        <mxCell id="u7fbEdpQ0vw_3mq9TT0k-21" value="&lt;p style=&quot;text-align: justify ; font-size: 7px&quot;&gt;A&lt;/p&gt;" style="ellipse;whiteSpace=wrap;html=1;aspect=fixed;fillColor=#b0e3e6;strokeColor=none;opacity=40;align=center;horizontal=1;" vertex="1" parent="1">
          <mxGeometry x="410" y="195" width="10" height="10" as="geometry" />
        </mxCell>
        <mxCell id="u7fbEdpQ0vw_3mq9TT0k-22" value="&lt;p style=&quot;text-align: justify ; font-size: 7px&quot;&gt;A&lt;/p&gt;" style="ellipse;whiteSpace=wrap;html=1;aspect=fixed;fillColor=#b0e3e6;strokeColor=none;opacity=40;align=center;horizontal=1;" vertex="1" parent="1">
          <mxGeometry x="424" y="200" width="10" height="10" as="geometry" />
        </mxCell>
        <mxCell id="u7fbEdpQ0vw_3mq9TT0k-23" value="&lt;p style=&quot;text-align: justify ; font-size: 7px&quot;&gt;A&lt;/p&gt;" style="ellipse;whiteSpace=wrap;html=1;aspect=fixed;fillColor=#b0e3e6;strokeColor=none;opacity=40;align=center;horizontal=1;" vertex="1" parent="1">
          <mxGeometry x="431" y="178" width="10" height="10" as="geometry" />
        </mxCell>
        <mxCell id="u7fbEdpQ0vw_3mq9TT0k-24" value="&lt;p style=&quot;text-align: justify ; font-size: 7px&quot;&gt;A&lt;/p&gt;" style="ellipse;whiteSpace=wrap;html=1;aspect=fixed;fillColor=#b0e3e6;strokeColor=none;opacity=40;align=center;horizontal=1;" vertex="1" parent="1">
          <mxGeometry x="403" y="172" width="10" height="10" as="geometry" />
        </mxCell>
        <mxCell id="u7fbEdpQ0vw_3mq9TT0k-25" value="&lt;p style=&quot;text-align: justify ; font-size: 7px&quot;&gt;A&lt;/p&gt;" style="ellipse;whiteSpace=wrap;html=1;aspect=fixed;fillColor=#b0e3e6;strokeColor=none;opacity=40;align=center;horizontal=1;" vertex="1" parent="1">
          <mxGeometry x="417" y="152" width="10" height="10" as="geometry" />
        </mxCell>
        <mxCell id="u7fbEdpQ0vw_3mq9TT0k-26" value="&lt;p style=&quot;text-align: justify ; font-size: 7px&quot;&gt;A&lt;/p&gt;" style="ellipse;whiteSpace=wrap;html=1;aspect=fixed;fillColor=#b0e3e6;strokeColor=none;opacity=40;align=center;horizontal=1;" vertex="1" parent="1">
          <mxGeometry x="412" y="212" width="10" height="10" as="geometry" />
        </mxCell>
        <mxCell id="u7fbEdpQ0vw_3mq9TT0k-27" value="&lt;p style=&quot;text-align: justify ; font-size: 7px&quot;&gt;A&lt;/p&gt;" style="ellipse;whiteSpace=wrap;html=1;aspect=fixed;fillColor=#b0e3e6;strokeColor=none;opacity=40;align=center;horizontal=1;" vertex="1" parent="1">
          <mxGeometry x="422" y="238" width="10" height="10" as="geometry" />
        </mxCell>
        <mxCell id="u7fbEdpQ0vw_3mq9TT0k-28" value="&lt;p style=&quot;text-align: justify ; font-size: 7px&quot;&gt;A&lt;/p&gt;" style="ellipse;whiteSpace=wrap;html=1;aspect=fixed;fillColor=#b0e3e6;strokeColor=none;opacity=40;align=center;horizontal=1;" vertex="1" parent="1">
          <mxGeometry x="430" y="212" width="10" height="10" as="geometry" />
        </mxCell>
        <mxCell id="u7fbEdpQ0vw_3mq9TT0k-29" value="&lt;p style=&quot;text-align: justify ; font-size: 7px&quot;&gt;A&lt;/p&gt;" style="ellipse;whiteSpace=wrap;html=1;aspect=fixed;fillColor=#b0e3e6;strokeColor=none;opacity=40;align=center;horizontal=1;" vertex="1" parent="1">
          <mxGeometry x="434" y="201" width="10" height="10" as="geometry" />
        </mxCell>
        <mxCell id="u7fbEdpQ0vw_3mq9TT0k-30" value="&lt;p style=&quot;text-align: justify ; font-size: 7px&quot;&gt;A&lt;/p&gt;" style="ellipse;whiteSpace=wrap;html=1;aspect=fixed;fillColor=#b0e3e6;strokeColor=none;opacity=40;align=center;horizontal=1;" vertex="1" parent="1">
          <mxGeometry x="460" y="222" width="10" height="10" as="geometry" />
        </mxCell>
        <mxCell id="u7fbEdpQ0vw_3mq9TT0k-31" value="&lt;p style=&quot;text-align: justify ; font-size: 7px&quot;&gt;A&lt;/p&gt;" style="ellipse;whiteSpace=wrap;html=1;aspect=fixed;fillColor=#b0e3e6;strokeColor=none;opacity=40;align=center;horizontal=1;" vertex="1" parent="1">
          <mxGeometry x="441" y="228" width="10" height="10" as="geometry" />
        </mxCell>
        <mxCell id="u7fbEdpQ0vw_3mq9TT0k-32" value="&lt;p style=&quot;text-align: justify ; font-size: 7px&quot;&gt;A&lt;/p&gt;" style="ellipse;whiteSpace=wrap;html=1;aspect=fixed;fillColor=#b0e3e6;strokeColor=none;opacity=40;align=center;horizontal=1;" vertex="1" parent="1">
          <mxGeometry x="440" y="240" width="10" height="10" as="geometry" />
        </mxCell>
        <mxCell id="u7fbEdpQ0vw_3mq9TT0k-33" value="&lt;p style=&quot;text-align: justify ; font-size: 7px&quot;&gt;A&lt;/p&gt;" style="ellipse;whiteSpace=wrap;html=1;aspect=fixed;fillColor=#b0e3e6;strokeColor=none;opacity=40;align=center;horizontal=1;" vertex="1" parent="1">
          <mxGeometry x="400.5" y="228" width="10" height="10" as="geometry" />
        </mxCell>
      </root>
    </mxGraphModel>
  </diagram>
</mxfile>
